<svg width="279" height="53" viewBox="0 0 279 53" fill="none" xmlns="http://www.w3.org/2000/svg">
<path d="M0.0511364 30.6591V27.25L27.4943 13.2727V18.7273L6.44318 28.8693L6.61364 28.5284V29.3807L6.44318 29.0398L27.4943 39.1818V44.6364L0.0511364 30.6591ZM53.5792 0.318179L39.5167 52.5625H34.9144L48.9769 0.318179H53.5792ZM88.4318 26.5682L60.9886 40.5455V35.0909L82.0398 24.9489L81.8693 25.2898V24.4375L82.0398 24.7784L60.9886 14.6364V9.18182L88.4318 23.1591V26.5682ZM107.699 46L95.7667 2.36364H101.136L110.255 37.9034H110.681L119.971 2.36364H125.937L135.227 37.9034H135.653L144.772 2.36364H150.142L138.21 46H132.755L123.125 11.2273H122.784L113.153 46H107.699ZM166.718 46.6818C163.565 46.6818 160.845 45.9858 158.558 44.5938C156.285 43.1875 154.531 41.2273 153.295 38.7131C152.074 36.1847 151.463 33.2443 151.463 29.892C151.463 26.5398 152.074 23.5852 153.295 21.0284C154.531 18.4574 156.25 16.4545 158.451 15.0199C160.667 13.571 163.252 12.8466 166.207 12.8466C167.912 12.8466 169.595 13.1307 171.257 13.6989C172.919 14.267 174.431 15.1903 175.795 16.4688C177.159 17.733 178.245 19.4091 179.055 21.4972C179.865 23.5852 180.27 26.1562 180.27 29.2102V31.3409H155.042V26.9943H175.156C175.156 25.1477 174.787 23.5 174.048 22.0511C173.324 20.6023 172.287 19.4588 170.937 18.6207C169.602 17.7827 168.025 17.3636 166.207 17.3636C164.204 17.3636 162.471 17.8608 161.008 18.8551C159.559 19.8352 158.444 21.1136 157.663 22.6903C156.882 24.267 156.491 25.9574 156.491 27.7614V30.6591C156.491 33.1307 156.917 35.2259 157.77 36.9446C158.636 38.6491 159.836 39.9489 161.37 40.8438C162.904 41.7244 164.687 42.1648 166.718 42.1648C168.039 42.1648 169.233 41.9801 170.298 41.6108C171.377 41.2273 172.308 40.6591 173.089 39.9062C173.87 39.1392 174.474 38.1875 174.9 37.0511L179.758 38.4148C179.247 40.0625 178.387 41.5114 177.18 42.7614C175.973 43.9972 174.481 44.9631 172.706 45.6591C170.93 46.3409 168.934 46.6818 166.718 46.6818ZM188.6 46V2.36364H193.629V18.4716H194.055C194.424 17.9034 194.936 17.179 195.589 16.2983C196.257 15.4034 197.208 14.608 198.444 13.9119C199.694 13.2017 201.385 12.8466 203.515 12.8466C206.271 12.8466 208.7 13.5355 210.802 14.9134C212.904 16.2912 214.545 18.2443 215.724 20.7727C216.903 23.3011 217.493 26.2841 217.493 29.7216C217.493 33.1875 216.903 36.1918 215.724 38.7344C214.545 41.2628 212.912 43.223 210.824 44.6151C208.735 45.9929 206.328 46.6818 203.6 46.6818C201.498 46.6818 199.815 46.3338 198.551 45.6378C197.287 44.9276 196.314 44.125 195.632 43.2301C194.95 42.321 194.424 41.5682 194.055 40.9716H193.458V46H188.6ZM193.544 29.6364C193.544 32.108 193.906 34.2884 194.63 36.1776C195.355 38.0526 196.413 39.5227 197.805 40.5881C199.197 41.6392 200.902 42.1648 202.919 42.1648C205.021 42.1648 206.775 41.6108 208.181 40.5028C209.602 39.3807 210.667 37.875 211.377 35.9858C212.102 34.0824 212.464 31.9659 212.464 29.6364C212.464 27.3352 212.109 25.2614 211.399 23.4148C210.703 21.554 209.645 20.0838 208.224 19.0043C206.818 17.9105 205.049 17.3636 202.919 17.3636C200.873 17.3636 199.154 17.8821 197.762 18.919C196.37 19.9418 195.319 21.3764 194.609 23.223C193.899 25.0554 193.544 27.1932 193.544 29.6364ZM225.866 46V2.36364H230.895V18.4716H231.321C231.69 17.9034 232.201 17.179 232.855 16.2983C233.522 15.4034 234.474 14.608 235.71 13.9119C236.96 13.2017 238.65 12.8466 240.781 12.8466C243.537 12.8466 245.966 13.5355 248.068 14.9134C250.17 16.2912 251.811 18.2443 252.99 20.7727C254.169 23.3011 254.758 26.2841 254.758 29.7216C254.758 33.1875 254.169 36.1918 252.99 38.7344C251.811 41.2628 250.177 43.223 248.089 44.6151C246.001 45.9929 243.593 46.6818 240.866 46.6818C238.764 46.6818 237.081 46.3338 235.816 45.6378C234.552 44.9276 233.579 44.125 232.897 43.2301C232.216 42.321 231.69 41.5682 231.321 40.9716H230.724V46H225.866ZM230.809 29.6364C230.809 32.108 231.172 34.2884 231.896 36.1776C232.62 38.0526 233.679 39.5227 235.071 40.5881C236.463 41.6392 238.167 42.1648 240.184 42.1648C242.287 42.1648 244.041 41.6108 245.447 40.5028C246.868 39.3807 247.933 37.875 248.643 35.9858C249.368 34.0824 249.73 31.9659 249.73 29.6364C249.73 27.3352 249.375 25.2614 248.664 23.4148C247.968 21.554 246.91 20.0838 245.49 19.0043C244.083 17.9105 242.315 17.3636 240.184 17.3636C238.139 17.3636 236.42 17.8821 235.028 18.919C233.636 19.9418 232.585 21.3764 231.875 23.223C231.164 25.0554 230.809 27.1932 230.809 29.6364ZM262.45 46V13.2727H267.308V18.2159H267.649C268.245 16.5966 269.325 15.2827 270.887 14.2741C272.45 13.2656 274.211 12.7614 276.172 12.7614C276.541 12.7614 277.002 12.7685 277.556 12.7827C278.11 12.7969 278.529 12.8182 278.814 12.8466V17.9602C278.643 17.9176 278.252 17.8537 277.642 17.7685C277.045 17.669 276.413 17.6193 275.745 17.6193C274.154 17.6193 272.734 17.9531 271.484 18.6207C270.248 19.2741 269.268 20.1832 268.544 21.348C267.833 22.4986 267.478 23.8125 267.478 25.2898V46H262.45Z" fill="black"/>
</svg>
